# xmcd
#
# Track frame offsets:
# 150
# 15790
# 29450
# 46397
# 59750
# 75277
# 89477
# 101560
# 115250
# 126652
# 136152
# 156705
# 171535
# 189620
# 208092
# 221265
# 238860
# 251100
# 265017
# 281780
#
# Disc length: 3955 seconds
#
#
# Revision: 0
# Processed by: cddbd v1.5.1PL2 Copyright (c) Steve Scherf et al.
# Submitted via: FreeRIP 2.944 
#
DISCID=2e0f7114
DTITLE=Everlasting Sentimental Hits 4
DYEAR=1900
DGENRE=Oldies
TTITLE0=you're my everything
TTITLE1=morning has broken
TTITLE2=american dream
TTITLE3=the way we were
TTITLE4=stoney
TTITLE5=tell laura i love her
TTITLE6=sealed with a kiss
TTITLE7=let it be there
TTITLE8=baby i'm a want yu
TTITLE9=snow bird
TTITLE10=the best of time
TTITLE11=you needed me
TTITLE12=danny boy
TTITLE13=fernando
TTITLE14=everything i own
TTITLE15=the twelfth of never
TTITLE16=for all we know
TTITLE17=tammy
TTITLE18=and i love you so
TTITLE19=the exodus song
EXTD=
EXTT0=
EXTT1=
EXTT2=
EXTT3=
EXTT4=
EXTT5=
EXTT6=
EXTT7=
EXTT8=
EXTT9=
EXTT10=
EXTT11=
EXTT12=
EXTT13=
EXTT14=
EXTT15=
EXTT16=
EXTT17=
EXTT18=
EXTT19=
PLAYORDER=
